<svg width="44" height="26" viewBox="0 0 44 26" fill="none" xmlns="http://www.w3.org/2000/svg">
<path fill-rule="evenodd" clip-rule="evenodd" d="M30.8303 4.14041e-07C27.4314 0.000897891 24.3332 1.27234 21.9982 3.36062C19.6614 1.27503 16.565 0.00269118 13.1697 0.00269118H13.0852C5.85479 0.0493167 0 5.85419 0 12.9996C0 20.1736 5.90022 25.9955 13.1687 25.9955C16.5641 25.9955 19.6604 24.725 21.9964 22.6376C21.5085 22.2027 21.0669 21.7212 20.6499 21.2173H23.3692C22.9594 21.7131 22.5124 22.1776 22.0318 22.6098H22.03C22.0234 22.6168 22.0165 22.6222 22.0097 22.6276L22.0096 22.6276L22.0041 22.6319C22.0015 22.634 21.9989 22.6362 21.9964 22.6385C24.3341 24.7277 27.4341 26.0009 30.8349 26C38.108 25.9973 44.0018 20.1763 44 12.9996V12.9933C44.0009 5.81653 38.1034 -0.00179204 30.8303 4.14041e-07ZM20.8007 4.70288H23.3038C23.6727 5.14403 24.0152 5.60849 24.3259 6.09447H19.8603C20.1483 5.63001 20.4645 5.1521 20.8007 4.70288ZM25.0855 7.45917H19.0826C18.8182 7.95207 18.6153 8.36222 18.4907 8.61396L18.4907 8.61407C18.4342 8.72817 18.3939 8.80971 18.3712 8.85166H25.6533C25.488 8.37464 25.299 7.90928 25.0855 7.45917ZM5.37598 16.3099L6.17461 11.3407L4.37292 16.3099H3.40712L3.28174 11.3407L2.4286 16.3099H1.07574L2.19691 9.7196H4.243L4.31478 13.7635L5.6967 9.7196H7.91633L6.81061 16.3099H5.37598ZM10.2059 15.7729L10.1596 16.2992H11.3943L11.9449 12.4885C11.9449 10.8718 10.5157 10.8198 10.0187 10.8198C9.0584 10.8198 8.32064 11.1247 8.32064 11.1247L8.11712 12.3172C8.11712 12.3172 8.72495 12.0742 9.64533 12.0742C10.1678 12.0742 10.5494 12.1316 10.5494 12.5503C10.5494 12.805 10.503 12.8991 10.503 12.8991C10.503 12.8991 10.0914 12.8651 9.90064 12.8651C8.6877 12.8651 7.41389 13.3762 7.41389 14.9175C7.41389 16.1298 8.24977 16.4086 8.76766 16.4086C9.63555 16.4086 10.0707 15.9215 10.1792 15.8001L10.1793 15.8001C10.1944 15.7831 10.2032 15.7732 10.2059 15.7729ZM15.3775 14.6207C15.3775 16.3964 13.6942 16.384 13.2946 16.381L13.2569 16.3808C12.1695 16.3808 11.7767 16.2437 11.6968 16.2158C11.6902 16.2136 11.6858 16.212 11.6832 16.2113L11.8704 15.0009C11.8708 14.9988 11.8933 15.0054 11.9341 15.0176C12.1035 15.0678 12.5883 15.2116 13.116 15.2116C13.494 15.2116 13.9846 15.1748 13.9846 14.7292C13.9846 14.4667 13.7128 14.3322 13.3831 14.169C12.8749 13.9176 12.2293 13.5982 12.2293 12.6373C12.2293 11.2394 13.2814 10.8306 14.319 10.8306C15.1203 10.8306 15.6128 10.9391 15.6128 10.9391L15.4356 12.1603C15.4356 12.1603 14.6751 12.0984 14.478 12.0984C13.9792 12.0984 13.7075 12.206 13.7075 12.5503C13.7072 12.8192 13.959 12.9325 14.2672 13.0711C14.7525 13.2894 15.3775 13.5706 15.3775 14.6207ZM17.7487 15.08C17.6824 15.0911 17.6115 15.1031 17.5453 15.1031C17.0574 15.1031 17.0038 14.8484 17.0338 14.6574L17.4281 12.2571H18.1704L18.3494 10.9543H17.6498L17.7924 10.1455H16.3905C16.3596 10.1751 15.5628 14.6969 15.5628 15.2456C15.5628 16.0634 16.0271 16.4238 16.6803 16.4184C17.1265 16.4153 17.487 16.3085 17.6652 16.2557C17.6914 16.2479 17.7136 16.2413 17.7316 16.2364L17.9069 15.0609C17.8618 15.0609 17.807 15.0701 17.7487 15.08ZM20.629 10.8019C22.1681 10.8019 22.6287 11.9137 22.6287 12.8256C22.6287 13.1905 22.4434 14.0872 22.4434 14.0872H19.5941C19.5941 14.0872 19.3306 15.1945 20.8361 15.1945C21.5421 15.1945 22.3253 14.8538 22.3253 14.8538L22.0781 16.1871C22.0781 16.1871 21.6257 16.4149 20.5972 16.4149C19.4824 16.4149 18.1749 15.9495 18.1749 13.9948C18.1758 12.3011 19.2189 10.8019 20.629 10.8019ZM19.6704 19.8786H24.3423C24.6248 19.4321 24.8811 18.9676 25.11 18.487H18.8927C19.1208 18.9703 19.3861 19.4303 19.6704 19.8786ZM24.0288 16.3198H22.5897L23.4646 10.9561H24.7702L24.6448 11.7335C24.6448 11.7335 25.11 10.8879 25.7378 10.8879C25.9205 10.8879 26.0086 10.9059 26.0086 10.9059C25.8223 11.2807 25.6579 11.6241 25.4871 12.5109C24.6847 12.2302 24.4928 13.4422 24.2209 15.1589L24.2209 15.1591L24.2208 15.1597C24.1627 15.5266 24.101 15.9165 24.0288 16.3198ZM28.2855 16.4265C28.7579 16.4265 29.512 16.2364 29.512 16.2364L29.7628 14.7265C29.7628 14.7265 29.0768 15.0663 28.6035 15.0663C27.6077 15.0663 27.2088 14.3167 27.2088 13.5124C27.2088 11.8796 28.0647 10.9812 29.0187 10.9812C29.7319 10.9812 30.3052 11.3766 30.3052 11.3766L30.5342 9.91059C30.5342 9.91059 29.6865 9.57166 28.9551 9.57166C27.3369 9.57166 25.7624 10.9579 25.7624 13.5608C25.7624 15.2869 26.6119 16.4265 28.2855 16.4265ZM32.8873 16.3019L32.9346 15.772C32.9317 15.7723 32.9225 15.7826 32.9067 15.8002C32.796 15.9234 32.3609 16.4077 31.4963 16.4077C30.9784 16.4077 30.1426 16.1289 30.1426 14.9166C30.1426 13.3753 31.4164 12.8642 32.6284 12.8642C32.8192 12.8642 33.2317 12.8982 33.2317 12.8982C33.2317 12.8982 33.2789 12.805 33.2789 12.5503C33.2789 12.1316 32.8973 12.0742 32.374 12.0742C31.4536 12.0742 30.8467 12.3172 30.8467 12.3172L31.0502 11.1247C31.0502 11.1247 31.788 10.8198 32.7492 10.8198C33.2453 10.8198 34.6754 10.8718 34.6745 12.4885L34.1239 16.2992C34.123 16.3019 32.8873 16.3019 32.8873 16.3019ZM34.3619 16.3198H35.8011C35.8732 15.9165 35.935 15.5265 35.9931 15.1596C36.265 13.4426 36.457 12.2301 37.2603 12.5109C37.4302 11.6241 37.5964 11.2807 37.7818 10.9059C37.7818 10.9059 37.6946 10.8879 37.5119 10.8879C36.8841 10.8879 36.418 11.7335 36.418 11.7335L36.5434 10.9561H35.2369L34.3619 16.3198ZM40.0977 16.3055L40.1586 15.8114C40.1586 15.8114 39.6934 16.3906 38.8521 16.3906C37.6864 16.3906 37.1149 15.2797 37.1149 14.1446C37.1149 12.3889 38.1852 10.8584 39.4699 10.8584C40.2967 10.8601 40.8246 11.5802 40.8246 11.5802L41.128 9.72858L42.5336 9.72589L41.4615 16.3055H40.0977ZM42.7135 16.2768C42.7807 16.2373 42.8334 16.1862 42.8707 16.1199C42.9088 16.0535 42.927 15.9845 42.927 15.9118C42.927 15.8392 42.9097 15.7693 42.8707 15.702C42.8325 15.6339 42.7798 15.5828 42.7107 15.546C42.6435 15.5093 42.5745 15.4904 42.5018 15.4904C42.4309 15.4904 42.3628 15.5093 42.2937 15.546C42.2274 15.5819 42.172 15.6357 42.1347 15.702C42.0975 15.7684 42.0784 15.8383 42.0784 15.9118C42.0784 15.9845 42.0966 16.0526 42.1347 16.1199C42.172 16.1862 42.2247 16.2373 42.2919 16.2768C42.3591 16.3135 42.4291 16.3324 42.5018 16.3324C42.5763 16.3324 42.6471 16.3135 42.7135 16.2768Z" fill="white"/>
<path d="M9.60105 14C8.26959 14 8 14.3358 8 14.6153C8 14.7594 8.14716 15 8.71105 15C9.80471 15 10.0319 14.195 9.9966 14.0238C9.9448 14.0178 9.91184 14.0007 9.60105 14Z" fill="white"/>
<path d="M20.1631 12C19.1879 12 19 12.9045 19 13H20.9864C20.9864 12.9272 21.1731 12 20.1631 12Z" fill="white"/>
<path d="M39.1825 12C38.5217 12 37.999 12.7427 38 13.8709C38 14.5589 38.253 15 38.7942 15C39.6078 15 40 13.9717 40 13.2055C40 12.36 39.7226 12 39.1825 12Z" fill="white"/>
<path fill-rule="evenodd" clip-rule="evenodd" d="M42.5229 16.0468C42.5787 16.0783 42.6228 16.1215 42.6543 16.1773C42.6858 16.234 42.702 16.2934 42.702 16.3528C42.702 16.4131 42.6876 16.4716 42.6561 16.5274C42.6237 16.5841 42.5805 16.6273 42.5247 16.6588C42.4707 16.6894 42.4113 16.7074 42.351 16.7074C42.2907 16.7074 42.2331 16.6894 42.1773 16.6588C42.1215 16.6255 42.0792 16.5832 42.0459 16.5274C42.0162 16.4725 42 16.4131 42 16.3528C42 16.2943 42.0162 16.234 42.0477 16.1773C42.0792 16.1206 42.1233 16.0756 42.1791 16.0468C42.2349 16.0162 42.2934 16 42.351 16C42.4104 16 42.4671 16.0153 42.5229 16.0468ZM42.4185 16.5139L42.459 16.5841H42.549L42.4932 16.4941C42.4671 16.4509 42.4455 16.4239 42.4266 16.405C42.4176 16.3969 42.4059 16.3888 42.3879 16.3816C42.4257 16.3771 42.4581 16.3663 42.4815 16.3402C42.5049 16.315 42.5175 16.2871 42.5175 16.2538C42.5175 16.2295 42.5121 16.207 42.4968 16.1872C42.4815 16.1674 42.4617 16.1521 42.4392 16.144C42.4167 16.1341 42.3771 16.1296 42.324 16.1296H42.1665V16.5832H42.2421V16.3906H42.2835C42.3096 16.3906 42.3276 16.396 42.3429 16.4077C42.3618 16.4212 42.387 16.4572 42.4185 16.5139Z" fill="white"/>
<path d="M32.6012 14C31.2696 14 31 14.3358 31 14.6153C31 14.7594 31.146 15 31.7111 15C32.8049 15 33.0309 14.195 32.9968 14.0238C32.9438 14.0178 32.9108 14.0007 32.6012 14Z" fill="white"/>
<path d="M42.597 15.4585C42.589 15.4485 42.578 15.4405 42.563 15.4335C42.546 15.4285 42.521 15.4235 42.481 15.4235V15.4245H42.39V15.5765H42.489C42.536 15.5765 42.567 15.5705 42.586 15.5555C42.601 15.5405 42.61 15.5215 42.61 15.4995C42.61 15.4825 42.606 15.4725 42.597 15.4585Z" fill="white"/>
</svg>
