<svg xmlns="http://www.w3.org/2000/svg" xml:space="preserve" viewBox="0 0 11 17"><path fill="currentColor" d="M.79 14.648V2.68q0-.89.57-1.438.57-.546 1.507-.547h5.649q.921 0 1.484.547.57.547.57 1.438v11.96q0 .9-.57 1.438-.563.547-1.484.547H2.867q-.937 0-1.508-.547-.57-.54-.57-1.43m1.327-.671h7.125V3.352H2.117zm3.57 1.875a.64.64 0 0 0 .47-.196.65.65 0 0 0 .195-.476.64.64 0 0 0-.196-.47.64.64 0 0 0-.468-.194.653.653 0 0 0-.664.664q0 .28.187.476.195.196.476.196M4.228 2.07q0 .134.085.211a.3.3 0 0 0 .211.078h2.32a.28.28 0 0 0 .204-.078.27.27 0 0 0 .086-.21.28.28 0 0 0-.086-.22.26.26 0 0 0-.203-.085h-2.32a.29.29 0 0 0-.212.086.28.28 0 0 0-.085.218"></path></svg>