<svg width="48" height="15" viewBox="0 0 48 15" fill="none" xmlns="http://www.w3.org/2000/svg">
<path d="M19.3075 1L17 15H20.6906L23 1H19.3075Z" fill="white"/>
<path d="M13.7966 1.00295L9.91063 10.5639L9.49632 9.12031C8.72994 7.38088 6.55427 4.88277 4 3.30844L7.55332 15L11.7516 14.9931L18 1L13.7966 1.00295Z" fill="white"/>
<path d="M7.70098 2.08739C7.47705 1.27208 6.82803 1.02908 6.02246 1H0.0495431L0 1.26645C4.64813 2.33414 7.72377 4.90671 9 8L7.70098 2.08739Z" fill="white"/>
<path d="M31.1049 3.03565C32.4132 3.01528 33.3615 3.29847 34.098 3.59185L34.459 3.75993L35 0.610187C34.208 0.315789 32.9666 0 31.4176 0C27.4659 0 24.6806 1.97114 24.659 4.79593C24.6333 6.88319 26.6431 8.04856 28.1612 8.74431C29.7195 9.45739 30.242 9.9107 30.2348 10.5474C30.2224 11.5202 28.9923 11.9664 27.8434 11.9664C26.242 11.9664 25.3914 11.7474 24.0779 11.2054L23.5626 10.9732L23 14.2258C23.936 14.6323 25.6629 14.9817 27.4556 15C31.6593 15 34.3911 13.0523 34.4199 10.034C34.4374 8.38268 33.3708 7.12258 31.0597 6.08862C29.6608 5.41426 28.8051 4.96604 28.8133 4.28557C28.8133 3.68149 29.5395 3.03565 31.1049 3.03565Z" fill="white"/>
<path fill-rule="evenodd" clip-rule="evenodd" d="M41.8324 1H44.845L48 15H44.3827C44.3827 15 44.0236 13.3907 43.9073 12.9017C43.6074 12.9017 42.3519 12.9 41.1698 12.8985C40.1184 12.8971 39.1251 12.8958 38.914 12.8958C38.7626 13.2738 38.0947 15 38.0947 15H34L39.7895 2.16258C40.2007 1.2494 40.8967 1 41.8324 1ZM41.5897 6.11378C41.5897 6.11378 40.3572 9.22446 40.0362 10.0286H43.2755L42.3719 5.98417L42.1092 4.77643C42.0106 5.03436 41.8791 5.36912 41.773 5.63934C41.6621 5.92153 41.5789 6.13334 41.5897 6.11378Z" fill="white"/>
</svg>
