<svg width="64" height="58" viewBox="0 0 64 58" fill="none" xmlns="http://www.w3.org/2000/svg">
<path id="calendar" opacity="0.42" fill-rule="evenodd" clip-rule="evenodd" d="M63.2305 48.7188C63.2305 54.1191 60.3252 57.0928 54.8223 57.0928H8.61133C3.1084 57.0928 0.203125 54.1875 0.203125 48.7188V8.96777C0.203125 3.46484 3.1084 0.55957 8.61133 0.55957H54.8223C60.3252 0.55957 63.2305 3.5332 63.2305 8.96777V48.7188ZM8.67969 55.2471H54.7539C58.958 55.2471 61.3848 52.9912 61.3848 48.6504V20.7939C61.3848 16.4531 58.958 14.1973 54.7539 14.1973H8.67969C4.30469 14.1973 2.04883 16.4531 2.04883 20.7939V48.6504C2.04883 52.9912 4.30469 55.2471 8.67969 55.2471ZM27 25.374C27.8203 25.374 27.9229 25.3057 27.9229 24.5195V22.6396C27.9229 21.8877 27.8203 21.7852 27 21.7852H25.1201C24.334 21.7852 24.2314 21.8877 24.2314 22.6396V24.5195C24.2314 25.3057 24.334 25.374 25.1201 25.374H27ZM39.2021 24.5195C39.2021 25.3057 39.0996 25.374 38.3135 25.374H36.4336C35.6133 25.374 35.5107 25.3057 35.5107 24.5195V22.6396C35.5107 21.8877 35.6133 21.7852 36.4336 21.7852H38.3135C39.0996 21.7852 39.2021 21.8877 39.2021 22.6396V24.5195ZM49.627 25.374C50.4131 25.374 50.5156 25.3057 50.5156 24.5195V22.6396C50.5156 21.8877 50.4131 21.7852 49.627 21.7852H47.7129C46.9268 21.7852 46.8242 21.8877 46.8242 22.6396V24.5195C46.8242 25.3057 46.9268 25.374 47.7129 25.374H49.627ZM16.6094 35.6621C16.6094 36.4141 16.5068 36.5166 15.7207 36.5166H13.8066C13.0205 36.5166 12.918 36.4141 12.918 35.6621V33.7822C12.918 33.0303 13.0205 32.9277 13.8066 32.9277H15.7207C16.5068 32.9277 16.6094 33.0303 16.6094 33.7822V35.6621ZM27 36.5166C27.8203 36.5166 27.9229 36.4141 27.9229 35.6621V33.7822C27.9229 33.0303 27.8203 32.9277 27 32.9277H25.1201C24.334 32.9277 24.2314 33.0303 24.2314 33.7822V35.6621C24.2314 36.4141 24.334 36.5166 25.1201 36.5166H27ZM39.2021 35.6621C39.2021 36.4141 39.0996 36.5166 38.3135 36.5166H36.4336C35.6133 36.5166 35.5107 36.4141 35.5107 35.6621V33.7822C35.5107 33.0303 35.6133 32.9277 36.4336 32.9277H38.3135C39.0996 32.9277 39.2021 33.0303 39.2021 33.7822V35.6621ZM49.627 36.5166C50.4131 36.5166 50.5156 36.4141 50.5156 35.6621V33.7822C50.5156 33.0303 50.4131 32.9277 49.627 32.9277H47.7129C46.9268 32.9277 46.8242 33.0303 46.8242 33.7822V35.6621C46.8242 36.4141 46.9268 36.5166 47.7129 36.5166H49.627ZM16.6094 46.8047C16.6094 47.5566 16.5068 47.6592 15.7207 47.6592H13.8066C13.0205 47.6592 12.918 47.5566 12.918 46.8047V44.9248C12.918 44.1387 13.0205 44.0703 13.8066 44.0703H15.7207C16.5068 44.0703 16.6094 44.1387 16.6094 44.9248V46.8047ZM27 47.6592C27.8203 47.6592 27.9229 47.5566 27.9229 46.8047V44.9248C27.9229 44.1387 27.8203 44.0703 27 44.0703H25.1201C24.334 44.0703 24.2314 44.1387 24.2314 44.9248V46.8047C24.2314 47.5566 24.334 47.6592 25.1201 47.6592H27ZM39.2021 46.8047C39.2021 47.5566 39.0996 47.6592 38.3135 47.6592H36.4336C35.6133 47.6592 35.5107 47.5566 35.5107 46.8047V44.9248C35.5107 44.1387 35.6133 44.0703 36.4336 44.0703H38.3135C39.0996 44.0703 39.2021 44.1387 39.2021 44.9248V46.8047Z" fill="white"/>
</svg>
