<svg width="64" height="47" viewBox="0 0 64 47" fill="none" xmlns="http://www.w3.org/2000/svg">
<path id="table" opacity="0.42" fill-rule="evenodd" clip-rule="evenodd" d="M7.6543 4.58301C7.6543 6.66797 6.01367 8.30859 3.92871 8.30859C1.87793 8.30859 0.237305 6.66797 0.237305 4.58301C0.237305 2.53223 1.87793 0.891602 3.92871 0.891602C6.01367 0.891602 7.6543 2.53223 7.6543 4.58301ZM63.4697 4.58301C63.4697 5.54004 62.752 6.25781 61.8291 6.25781H17.3271C16.3701 6.25781 15.6865 5.54004 15.6865 4.58301C15.6865 3.66016 16.3701 2.94238 17.3271 2.94238H61.8291C62.752 2.94238 63.4697 3.66016 63.4697 4.58301ZM3.92871 27.4834C6.01367 27.4834 7.6543 25.8086 7.6543 23.7578C7.6543 21.707 6.01367 20.0322 3.92871 20.0322C1.87793 20.0322 0.237305 21.707 0.237305 23.7578C0.237305 25.8086 1.87793 27.4834 3.92871 27.4834ZM63.4697 23.7578C63.4697 24.6807 62.752 25.3984 61.8291 25.3984H17.3271C16.3701 25.3984 15.6865 24.6807 15.6865 23.7578C15.6865 22.8008 16.3701 22.1172 17.3271 22.1172H61.8291C62.752 22.1172 63.4697 22.8008 63.4697 23.7578ZM3.92871 46.624C6.01367 46.624 7.6543 44.9492 7.6543 42.8984C7.6543 40.8477 6.01367 39.1728 3.92871 39.1728C1.87793 39.1728 0.237305 40.8477 0.237305 42.8984C0.237305 44.9492 1.87793 46.624 3.92871 46.624ZM63.4697 42.8984C63.4697 43.8555 62.752 44.5391 61.8291 44.5391H17.3271C16.3701 44.5391 15.6865 43.8555 15.6865 42.8984C15.6865 41.9756 16.3701 41.2578 17.3271 41.2578H61.8291C62.752 41.2578 63.4697 41.9756 63.4697 42.8984Z" fill="white"/>
</svg>
