<svg width="68" height="70" viewBox="0 0 68 70" fill="none" xmlns="http://www.w3.org/2000/svg">
<g id="bus-stop" opacity="0.42">
<path id="Shape" fill-rule="evenodd" clip-rule="evenodd" d="M59.0804 32.6054L67.6727 64.1049C67.9732 65.2156 67.8484 66.3983 67.3226 67.4218C67.294 67.479 67.2608 67.5341 67.2235 67.5862C67.122 67.7875 67.0062 67.9813 66.877 68.166C65.9975 69.3261 64.6239 70.0053 63.1682 70H4.66794C3.21314 70.0004 1.84146 69.3222 0.958274 68.1662C0.0750868 67.0101 -0.218307 65.5084 0.164636 64.1049L5.00043 46.3801V46.3719L8.75699 32.6054C9.31301 30.5772 11.155 29.1701 13.258 29.1673H15.5551C14.3796 25.4571 13.9126 21.5587 14.1785 17.6759C15.2187 7.57676 23.766 -0.076355 33.9181 0.00116349H34.2553C45.0567 0.232079 53.7055 9.03046 53.7512 19.8341C53.7096 22.9999 53.2126 26.1431 52.2753 29.1673H54.5783C56.6817 29.1697 58.5243 30.5768 59.0804 32.6054ZM56.8288 33.2202C56.5521 32.2052 55.6303 31.5009 54.5783 31.5006V31.5007H51.5089C47.8293 41.8161 40.5366 51.2567 36.7193 55.7494L41.9435 57.4994L58.1471 38.056L56.8288 33.2202ZM16.5024 17.8812C17.4319 8.98426 24.9732 2.25235 33.9181 2.33451H34.2192C43.7484 2.54 51.3778 10.3028 51.4178 19.8342C51.3584 23.2434 50.7538 26.6212 49.627 29.8394C49.6066 29.8902 49.5898 29.9425 49.5768 29.9957C46.0979 40.324 38.5659 49.9932 34.8001 54.4101C34.5826 54.6683 34.2616 54.8166 33.9239 54.8149C33.9146 54.8149 33.9064 54.809 33.8958 54.809L33.3055 54.6118C33.2019 54.5547 33.1075 54.4824 33.0255 54.3972C28.828 49.4728 15.2285 32.2847 16.5024 17.8812ZM13.258 31.5006C12.2062 31.5009 11.2846 32.2046 11.0075 33.2191L7.52394 45.9927L28.9983 53.1722C24.971 48.1008 19.3852 40.1012 16.3192 31.5006H13.258ZM4.67258 67.6667C3.94293 67.6706 3.25415 67.331 2.81297 66.7498C2.36987 66.1727 2.22386 65.4209 2.41868 64.7198L5.22793 54.4184L17.452 58.5017L9.80587 67.6669H4.67258V67.6667ZM26.2427 61.4427L21.0559 67.6667H44.874L26.2427 61.4427ZM63.1741 67.6667H52.2344L26.2183 58.9763H26.202C26.1118 58.9546 26.0195 58.9433 25.9266 58.9426C25.8688 58.932 25.8103 58.9255 25.7516 58.9228C25.6803 58.9353 25.6104 58.9549 25.5429 58.9811C25.4684 58.9953 25.3954 59.0164 25.3247 59.0442C25.2798 59.0745 25.237 59.1076 25.1963 59.1433C25.1113 59.1944 25.0328 59.2559 24.9629 59.3265L24.9501 59.337L18.0179 67.6669H12.8438L20.3349 58.6836C20.337 58.6802 20.339 58.6768 20.3408 58.6733C20.3429 58.6694 20.3448 58.6655 20.3466 58.6615C20.4335 58.5577 20.5011 58.4392 20.546 58.3115V58.2976C20.5732 58.1945 20.5862 58.0881 20.5846 57.9813C20.5846 57.9599 20.5883 57.9387 20.5919 57.9178C20.5962 57.8932 20.6005 57.8688 20.5985 57.8449C20.5851 57.7652 20.5635 57.687 20.5344 57.6115C20.5214 57.5445 20.5023 57.4789 20.4773 57.4155C20.4499 57.3692 20.419 57.3252 20.3851 57.2837C20.3333 57.1981 20.2706 57.1197 20.1985 57.0503L20.188 57.0374C20.1318 56.9996 20.0719 56.967 20.0094 56.9406C19.9475 56.895 19.8811 56.8559 19.8111 56.824L5.84165 52.1572L6.91036 48.2408L32.3117 56.7328C32.6357 56.9039 32.9852 57.0221 33.3465 57.0828L41.9389 59.9551L41.9587 59.961C42.0776 60.0019 42.2027 60.0228 42.3285 60.0228C42.4783 60.0195 42.6263 59.987 42.7637 59.9271C42.8 59.9114 42.8356 59.8933 42.8699 59.8733C42.9843 59.8141 43.0874 59.7351 43.1744 59.64C43.1813 59.633 43.1895 59.628 43.1977 59.623C43.2075 59.617 43.2175 59.6109 43.2256 59.6014L58.8972 40.8032L60.1734 45.4826L47.8606 60.2582C47.8192 60.32 47.7836 60.3856 47.7544 60.4543C47.7138 60.5117 47.6789 60.5731 47.6506 60.6374V60.6514C47.6242 60.7519 47.6116 60.8555 47.6133 60.9594C47.6054 61.0073 47.6003 61.0555 47.5981 61.1041C47.6112 61.1839 47.6327 61.2621 47.6622 61.3374C47.6758 61.4059 47.6953 61.4731 47.7206 61.5381C47.75 61.5826 47.7824 61.6251 47.8174 61.6653C47.8689 61.7507 47.9313 61.8291 48.0029 61.8987L48.0122 61.9103C48.1223 62.0012 48.2479 62.0712 48.3833 62.1167H48.3915L54.5292 64.1583C54.556 64.1676 54.5829 64.1746 54.6108 64.1817L64.2508 67.3993C63.919 67.5747 63.5494 67.6665 63.1741 67.6667ZM55.1908 61.9163C55.221 61.9233 55.249 61.9315 55.2771 61.9408L65.4936 65.3568C65.4978 65.142 65.4723 64.9276 65.4177 64.7198L60.9226 48.2246L50.7494 60.4335L55.1908 61.9163Z" fill="white"/>
<path id="Shape_2" fill-rule="evenodd" clip-rule="evenodd" d="M40.336 30.3395C42.3645 30.3395 44.0823 28.8434 44.3609 26.8341H45.5171C46.9038 26.8388 48.1687 26.0432 48.7651 24.7912C49.2114 23.4759 49.1486 22.0411 48.5888 20.7699L48.5755 20.7258C48.4974 20.4686 48.4223 20.2212 48.366 19.9906L48.1828 19.2358L48.0992 18.8916C47.8158 17.7239 47.5331 16.5592 47.2494 15.3683L47.2132 15.2307C47.084 14.6182 46.8725 14.0259 46.5844 13.4702C45.9668 12.3453 44.7795 11.6523 43.4963 11.6677H22.2984C20.9974 11.6561 19.9325 12.7 19.9185 14.001V24.5009C19.9325 25.8019 20.9974 26.8458 22.2984 26.8342H24.6446C24.9232 28.8435 26.6409 30.3396 28.6695 30.3396C30.6981 30.3396 32.4158 28.8435 32.6945 26.8342H36.311C36.5895 28.8434 38.3074 30.3395 40.336 30.3395ZM40.3347 28.0007C39.3683 28.0007 38.5848 27.2171 38.5848 26.2507C38.5848 25.2843 39.3683 24.5007 40.3347 24.5007C41.3012 24.5007 42.0847 25.2843 42.0847 26.2507C42.0847 27.2173 41.3012 28.0007 40.3347 28.0007ZM37.4182 14.0009H33.9182V17.5009H37.4182V14.0009ZM28.0849 14.0009H31.5849V17.5009H28.0849V14.0009ZM25.7517 14.0009H22.2984L22.2832 17.5009H25.7517V14.0009ZM28.6683 28.0007C27.7019 28.0007 26.9183 27.2171 26.9183 26.2507C26.9183 25.2843 27.7019 24.5007 28.6683 24.5007C29.6348 24.5007 30.4183 25.2843 30.4183 26.2507C30.4183 27.2173 29.6348 28.0007 28.6683 28.0007ZM28.6671 22.1592C30.2414 22.1592 31.6737 23.0696 32.342 24.495V24.4951H36.6587C37.327 23.0697 38.7593 22.1593 40.3336 22.1593C41.9079 22.1593 43.3403 23.0697 44.0086 24.4951H45.5205C46 24.4921 46.4377 24.2222 46.6557 23.7951C46.7922 23.0003 46.6894 22.1828 46.3605 21.4466L46.3536 21.4239C46.2593 21.1137 46.1687 20.8157 46.1016 20.5379L45.9184 19.7831C45.5998 18.4951 45.2884 17.2117 44.985 15.9203L44.9546 15.8037C44.8704 15.3932 44.736 14.9948 44.5545 14.6172C44.3494 14.2255 43.938 13.9862 43.4963 14.0012H39.7514V17.5011H42.0847C42.729 17.5011 43.2513 18.0234 43.2513 18.6677C43.2513 19.3121 42.729 19.8343 42.0847 19.8343H22.2727L22.2517 24.5009L24.9921 24.495C25.6604 23.0696 27.0928 22.1592 28.6671 22.1592Z" fill="white"/>
</g>
</svg>
