<svg width="54" height="40" viewBox="0 0 54 40" fill="none" xmlns="http://www.w3.org/2000/svg">
<path d="M46.0409 0C51.1816 0 54 2.82486 54 7.9322V9.85311H0V7.9322C0 2.80226 2.81837 0 7.95908 0H46.0409ZM9.71774 32.4972H15.2418C16.572 32.4972 17.4514 31.5932 17.4514 30.3277V26.1469C17.4514 24.8814 16.572 23.9774 15.2418 23.9774H9.71774C8.38747 23.9774 7.4856 24.8814 7.4856 26.1469V30.3277C7.4856 31.5932 8.38747 32.4972 9.71774 32.4972ZM7.95908 40C2.81837 40 0 37.1977 0 32.0678V15.4124H54V32.0678C54 37.1977 51.1816 40 46.0409 40H7.95908Z" fill="#00A0FF"/>
</svg>
