<svg width="50" height="50" viewBox="0 0 50 50" fill="none" xmlns="http://www.w3.org/2000/svg">
<g id="travel-bus">
<path id="Path" d="M49.5709 8.85195L47.1295 6.41055C46.8548 6.13584 46.4822 5.98145 46.0938 5.98145H44.2251C44.0225 2.6627 41.2595 0.0244141 37.8906 0.0244141H12.1094C8.74053 0.0244141 5.97754 2.6627 5.7749 5.98145H3.90625C3.51768 5.98145 3.14512 6.13584 2.87051 6.41055L0.429102 8.85195C0.154297 9.12666 0 9.49922 0 9.8877V17.2119C0 18.0209 0.655859 18.6768 1.46484 18.6768C2.27383 18.6768 2.92969 18.0209 2.92969 17.2119V10.4944L4.51299 8.91113H5.76172V26.576C11.8268 27.7768 38.3433 27.7431 44.2383 26.576V8.91113H45.487L47.0703 10.4944V17.2119C47.0703 18.0209 47.7262 18.6768 48.5352 18.6768C49.3441 18.6768 50 18.0209 50 17.2119V9.8877C50 9.49922 49.8457 9.12666 49.5709 8.85195Z" fill="#00A0FF"/>
<path id="Path_2" d="M7.42188 46.9395V47.5342C7.42188 48.8809 8.5166 49.9756 9.86328 49.9756H14.4531C15.7998 49.9756 16.8945 48.8809 16.8945 47.5342V46.9971C7.73506 46.9776 8.10088 47.0409 7.42188 46.9395Z" fill="#00A0FF"/>
<path id="Path_3" d="M33.1055 46.9971V47.5342C33.1055 48.8809 34.2002 49.9756 35.5469 49.9756H40.1367C41.4834 49.9756 42.5781 48.8809 42.5781 47.5342V46.9395C41.8992 47.0409 42.2658 46.9776 33.1055 46.9971Z" fill="#00A0FF"/>
<path id="Shape" fill-rule="evenodd" clip-rule="evenodd" d="M5.76172 34.9687V29.551C12.8209 30.6778 37.1827 30.6773 44.2383 29.551V34.9687L35.004 36.5694C34.466 36.6627 34.0246 37.0473 33.8586 37.5674L31.7841 44.0675H18.2162L16.1417 37.5674C15.9756 37.0474 15.5343 36.6627 14.9963 36.5694L5.76172 34.9687ZM20.6055 36.7432H29.3945C30.2035 36.7432 30.8594 36.0873 30.8594 35.2783C30.8594 34.4693 30.2035 33.8135 29.3945 33.8135H20.6055C19.7965 33.8135 19.1406 34.4693 19.1406 35.2783C19.1406 36.0873 19.7965 36.7432 20.6055 36.7432Z" fill="#00A0FF"/>
<path id="Path_4" d="M34.8592 44.0674H41.7969C43.1431 44.0674 44.2383 42.9722 44.2383 41.626V37.9421L36.3793 39.3043L34.8592 44.0674Z" fill="#00A0FF"/>
<path id="Path_5" d="M15.1408 44.0674L13.6207 39.3043L5.76172 37.9421V41.626C5.76172 42.9722 6.85693 44.0674 8.20312 44.0674H15.1408Z" fill="#00A0FF"/>
</g>
</svg>
