<svg width="64" height="44" viewBox="0 0 64 44" fill="none" xmlns="http://www.w3.org/2000/svg">
<g id="ukraine">
<path id="Path" d="M62.9333 15.1906C59.3899 13.8699 55.8203 11.1769 52.3527 11.3832C47.6019 11.6584 45.7325 7.3041 43.4577 4.728C41.8479 2.91545 41.9704 -0.860994 38.3716 0.1777C35.7118 0.948122 32.1159 0.666092 30.6023 2.62998C28.7154 5.07882 27.2164 4.80023 25.137 4.59387C21.7599 4.24993 18.4352 3.75466 15.1251 2.771C12.5762 2.02465 9.86102 1.82516 7.23336 3.00831C5.42228 3.83376 3.82994 4.54916 5.5506 7.3385C6.59175 9.01348 6.46052 10.4339 4.62319 11.538C3.61121 12.1399 2.76838 13.3368 2.08594 14.4649C-0.842105 19.2835 -0.678788 23.8957 2.52048 24.2156C6.84548 24.6455 11.2609 26.7573 15.6413 23.0255C18.6218 20.4804 22.8156 22.8467 24.6121 26.8983C25.3412 28.5457 26.3211 30.0384 27.3651 31.9129C22.9264 31.4142 23.0285 35.4864 21.5936 38.1485C25.9303 39.7994 27.9251 36.3807 30.0686 33.5432C31.031 32.274 32.1626 30.8329 33.3146 32.2259C35.1111 34.403 37.3304 34.0144 39.4769 34.4649C39.4273 34.9499 39.2523 35.2869 39.0073 35.5518C38.2782 36.3394 36.9717 36.4632 36.9396 37.9077C37.937 38.9292 40.0485 38.6713 40.1243 40.7899C40.1331 41.0926 40.1039 41.4434 40.0193 41.8596C39.821 42.8433 41.1071 43.5105 41.5388 43.1838C44.5251 40.955 48.1006 40.3463 51.0287 37.5741C50.4454 37.5225 49.8504 37.3574 49.2847 37.4537C47.6632 37.722 46.1846 37.5328 45.6684 35.4279C45.158 33.3471 47.3103 32.5526 47.8819 32.4254C52.8747 31.2801 56.7739 27.4176 61.3614 25.3677C64.8377 23.8063 61.793 19.7856 63.7324 17.6498C64.1553 17.1786 64.202 15.6652 62.9333 15.1906Z" fill="#00A0FF"/>
</g>
</svg>
